<svg xmlns="http://www.w3.org/2000/svg" data-name="Слой 1" viewBox="0 0 128 160" x="0px" y="0px"><title>carrot</title><path fill="white" d="M9,128a7.79,7.79,0,0,1-5.78-2.1C-6.31,116.4,20,81.81,43.69,54.46c4.92-5.67,9.48-11.44,13.89-17,10.29-13,19.18-24.27,28.63-29.31,7.5-4,15.93-4.18,22-.46a2,2,0,0,1-2.09,3.41c-4.79-2.94-11.87-2.71-18,.57C79.38,16.3,70.73,27.24,60.72,39.92c-4.44,5.62-9,11.42-14,17.16C12.48,96.55,1.61,118.66,6,123.07,8,125,18.62,128,73.7,84c18.35-14.67,36.84-30.07,43.67-43,3.36-6.37,2.67-14.12-1.86-20.74a2,2,0,0,1,3.3-2.26c5.38,7.87,6.16,17.16,2.09,24.87-7.2,13.63-25.26,28.71-44.71,44.26-18.39,14.7-33.66,25.61-45.38,32.44C21.06,125.2,13.9,128,9,128Z"/><path fill="white" d="M120.42,32.6c-2.63,0-7.6-1.35-14.12-6.6-9-7.24-13-16.81-12.06-19.4a2.2,2.2,0,0,1,2.08-1.5,2,2,0,0,1,1.81,2.86c.39,1.93,3.32,9,10.69,14.93,6.23,5,10.46,5.79,11.68,5.73a2,2,0,0,1,2.93,2.28,2.24,2.24,0,0,1-1.57,1.53A4.82,4.82,0,0,1,120.42,32.6Zm-.85-2.81h0Z"/><path fill="white" d="M111.67,15.74a2,2,0,0,1-1.41-.59c-.68-.68-4.48-4.34-4.48-4.34a2,2,0,0,1,0-2.93L114,.51a2,2,0,0,1,1.86-.45l8.62,2.31a2,2,0,0,1,1.05,3.17s-.74.95-1.87,2.28a2,2,0,0,1-3.2-2.39l-4.59-1.23L110.1,9.42c1.15,1.11,2.6,2.51,3,2.9a2,2,0,0,1-1.41,3.41Z"/><path fill="white" d="M117,20.76c-.39,0-2.29-.11-4.92-2.08a25.1,25.1,0,0,1-2.73-2.79,2,2,0,0,1,.1-2.72l9.76-9.76a2,2,0,0,1,3,.21l4.22,5.57a2,2,0,0,1-.14,2.57l-7.84,8.36a2,2,0,0,1-1.45.63Zm-3.37-6.11a9.51,9.51,0,0,0,.86.83,8,8,0,0,0,1.84,1.07l5.9-6.29-1.81-2.4Z"/><path fill="white" d="M79.21,39.32a2,2,0,0,1-1.41-.59L67.3,28.23a2,2,0,0,1,2.83-2.83l10.5,10.5a2,2,0,0,1-1.41,3.41Z"/><path fill="white" d="M94.63,71.23a2,2,0,0,1-1.41-.59l-8.46-8.45a2,2,0,1,1,2.83-2.83L96,67.82a2,2,0,0,1-1.41,3.41Z"/><path fill="white" d="M71,68.84a2,2,0,0,1-1.41-.59L62,60.63a2,2,0,0,1,2.83-2.83l7.63,7.63A2,2,0,0,1,71,68.84Z"/><path fill="white" d="M101,33.72a2,2,0,0,1-1.41-.59l-8.07-8.07a2,2,0,0,1,2.83-2.83l8.07,8.07A2,2,0,0,1,101,33.72Z"/><path fill="white" d="M42.65,77.42a2,2,0,0,1-1.41-.59l-7.61-7.61a2,2,0,0,1,2.83-2.83L44.06,74a2,2,0,0,1-1.41,3.41Z"/><path fill="white" d="M52.05,105a2,2,0,0,1-1.41-.59L42,95.83A2,2,0,0,1,44.85,93l8.61,8.61A2,2,0,0,1,52.05,105Z"/><path fill="white" d="M29,107.08a2,2,0,0,1-1.41-.59l-4-4a2,2,0,0,1,2.83-2.83l4,4A2,2,0,0,1,29,107.08Z"/></svg>